<!-- icon666.com - MILLIONS vector ICONS FREE --><svg version="1.1" id="Capa_1" xmlns="http://www.w3.org/2000/svg" xmlns:xlink="http://www.w3.org/1999/xlink" x="0px" y="0px" viewBox="0 0 45.609 45.609" style="enable-background:new 0 0 45.609 45.609;" xml:space="preserve"><g><path d="M43.744,35.185l-6.057-6.451c-0.695-0.741-1.657-1.176-2.674-1.208c-1.016-0.031-2.004,0.342-2.745,1.037l-1.506,1.414 L16.227,14.493l1.505-1.413c1.543-1.449,1.62-3.875,0.171-5.419L11.848,1.21c-0.696-0.741-1.658-1.176-2.674-1.208 C8.158-0.03,7.17,0.343,6.429,1.04c0,0-1.768,1.674-2.328,2.26c-2.088,2.183-3.17,5.159-3.266,8.203 c-0.109,3.439,1.153,6.782,3.509,9.291l19.378,20.644c4.633,4.936,12.369,5.628,17.446,1.348c0.62-0.523,2.402-2.182,2.402-2.182 c0.741-0.695,1.176-1.656,1.208-2.674C44.81,36.913,44.438,35.926,43.744,35.185z"></path></g></svg>