<!-- icon666.com - MILLIONS vector ICONS FREE --><svg enable-background="new 0 0 32 32" viewBox="0 0 32 32" xmlns="http://www.w3.org/2000/svg"><g id="Layer_3"><path d="m30.707 29.293-10.259-10.259c1.591-1.909 2.552-4.361 2.552-7.034 0-6.065-4.935-11-11-11s-11 4.935-11 11 4.935 11 11 11c2.673 0 5.125-.961 7.034-2.552l10.259 10.259c.195.195.451.293.707.293s.512-.098.707-.293c.391-.391.391-1.023 0-1.414zm-27.707-17.293c0-4.962 4.038-9 9-9s9 4.038 9 9-4.038 9-9 9-9-4.038-9-9z" fill="rgb(0,0,0)"></path></g></svg>